<svg xmlns="http://www.w3.org/2000/svg" viewBox="0 0 128 128"><defs><style>.a{fill:#dce1eb;}.b{fill:#1c254c;}</style></defs><circle class="a" cx="64" cy="64" r="64"/><path class="b" d="M104,79.65c-1-.09-2.09-.26-3.14-.38a.5.5,0,0,1-.5-.41A15.73,15.73,0,0,0,99,75.47a.53.53,0,0,1,.08-.68c.65-.81,1.29-1.64,1.94-2.46a1.38,1.38,0,0,0-.13-2.12L97.3,66.62a1.38,1.38,0,0,0-2.1-.11c-.82.64-1.64,1.28-2.45,1.93a.56.56,0,0,1-.72.09,15.06,15.06,0,0,0-3.35-1.38.54.54,0,0,1-.43-.54c-.12-1.09-.26-2.17-.4-3.26a1.3,1.3,0,0,0-1.38-1.25H86V47.67A5.65,5.65,0,0,0,80.38,42H65.91v-1a1.6,1.6,0,0,0-1.37-.9c-1.05-.09-2.09-.26-3.14-.38a.5.5,0,0,1-.5-.41A15.73,15.73,0,0,0,59.5,36a.53.53,0,0,1,.08-.68c.65-.81,1.29-1.64,1.93-2.46a1.37,1.37,0,0,0-.12-2.12c-1.19-1.2-2.39-2.39-3.59-3.59A1.37,1.37,0,0,0,55.71,27c-.82.64-1.64,1.28-2.45,1.93a.56.56,0,0,1-.72.09,15.59,15.59,0,0,0-3.35-1.39.52.52,0,0,1-.43-.53c-.12-1.09-.26-2.17-.4-3.26A1.3,1.3,0,0,0,47,22.61H41.57a1.3,1.3,0,0,0-1.38,1.24c-.14,1.1-.29,2.2-.41,3.3a.51.51,0,0,1-.42.5A15.86,15.86,0,0,0,36,29.05a.51.51,0,0,1-.65-.06c-.82-.66-1.66-1.31-2.49-2a1.38,1.38,0,0,0-2.12.13l-3.59,3.59a1.36,1.36,0,0,0-.13,2c.65.84,1.3,1.67,2,2.49A.56.56,0,0,1,29,36a14.73,14.73,0,0,0-1.37,3.31.56.56,0,0,1-.55.47c-1.09.11-2.18.26-3.27.4a1.31,1.31,0,0,0-1.24,1.39q0,2.7,0,5.4a1.29,1.29,0,0,0,1.24,1.38c1.09.14,2.18.29,3.27.4a.54.54,0,0,1,.54.43,15.43,15.43,0,0,0,1.4,3.39.52.52,0,0,1-.07.65c-.67.82-1.32,1.65-2,2.48a1.39,1.39,0,0,0,.12,2.1l3.61,3.62a1.37,1.37,0,0,0,2.06.12c.83-.65,1.67-1.3,2.49-2a.55.55,0,0,1,.72-.06,15.55,15.55,0,0,0,3.35,1.38.5.5,0,0,1,.41.5c.12,1.05.29,2.09.38,3.14a1.6,1.6,0,0,0,.9,1.37h1V79.2A6.82,6.82,0,0,0,48.85,86H62.1v.46a1.29,1.29,0,0,0,1.24,1.38c1.09.14,2.18.29,3.27.4a.54.54,0,0,1,.54.43,15.43,15.43,0,0,0,1.4,3.39.52.52,0,0,1-.07.65c-.67.82-1.32,1.65-2,2.49a1.38,1.38,0,0,0,.12,2.09l3.61,3.62a1.37,1.37,0,0,0,2.06.12c.83-.65,1.67-1.3,2.49-2a.55.55,0,0,1,.72-.06,15.55,15.55,0,0,0,3.35,1.38.5.5,0,0,1,.41.5c.12,1,.29,2.09.38,3.14a1.6,1.6,0,0,0,.9,1.37H87a1.6,1.6,0,0,0,.9-1.37c.09-1.06.26-2.12.38-3.18a.44.44,0,0,1,.37-.44A16.11,16.11,0,0,0,92.09,99a.48.48,0,0,1,.61.07c.82.66,1.66,1.31,2.49,2a1.37,1.37,0,0,0,2.12-.11l3.58-3.58a1.38,1.38,0,0,0,.11-2.12c-.63-.81-1.26-1.63-1.91-2.42A.59.59,0,0,1,99,92a15.64,15.64,0,0,0,1.37-3.3.54.54,0,0,1,.55-.46c1-.11,2.06-.28,3.1-.37a1.6,1.6,0,0,0,1.37-.9V80.55A1.6,1.6,0,0,0,104,79.65ZM32.8,44.79A11.5,11.5,0,1,1,45.41,55.73,11.43,11.43,0,0,1,32.8,44.79ZM70.21,66.65l-3.59,3.59a1.36,1.36,0,0,0-.13,2.05c.65.84,1.3,1.67,2,2.49a.56.56,0,0,1,.08.72,14.73,14.73,0,0,0-1.37,3.31.56.56,0,0,1-.55.47c-1.09.11-2.18.26-3.27.4a1.31,1.31,0,0,0-1.24,1.39v.44H48.85a2.32,2.32,0,0,1-2.32-2.31V65.91h1a1.6,1.6,0,0,0,.9-1.37c.09-1.06.26-2.12.38-3.18a.44.44,0,0,1,.37-.44,16.33,16.33,0,0,0,3.46-1.44.48.48,0,0,1,.61.07c.82.66,1.66,1.31,2.49,2a1.38,1.38,0,0,0,2.12-.11l3.58-3.58a1.38,1.38,0,0,0,.11-2.12c-.63-.81-1.26-1.63-1.91-2.42a.61.61,0,0,1-.09-.76,15.16,15.16,0,0,0,1.38-3.3.54.54,0,0,1,.55-.46c1-.11,2.06-.28,3.1-.37a1.6,1.6,0,0,0,1.37-.9v-1H80.38a1.15,1.15,0,0,1,1.14,1.15V62.1h-.46a1.3,1.3,0,0,0-1.38,1.24c-.14,1.1-.29,2.2-.41,3.31a.5.5,0,0,1-.42.49,15.86,15.86,0,0,0-3.38,1.4.51.51,0,0,1-.65-.06c-.82-.66-1.66-1.31-2.49-2A1.38,1.38,0,0,0,70.21,66.65ZM84.83,95.21c-6.71.65-11.66-5-11.79-10.93-.31-6.13,4-11.4,9.64-12,6.54-.65,11.3,4.6,11.79,10.27C95.07,89.54,90.21,94.7,84.83,95.21Z"/></svg>