<svg xmlns="http://www.w3.org/2000/svg" viewBox="0 0 148 148"><defs><style>.a{fill:#fc6d22;}.b{fill:#fff;}</style></defs><circle class="a" cx="74" cy="74" r="74"/><path class="b" d="M108.74,45.64c-5.48-4.82-14.39-12.73-15.55-13.93a2.32,2.32,0,0,0-1.88-.95H47.45a9,9,0,0,0-9,9v68.5a9,9,0,0,0,9,9h53.09a9,9,0,0,0,9-9V47.4A2.36,2.36,0,0,0,108.74,45.64ZM93.66,38.57c1.72,1.55,4.08,3.64,7.3,6.48h-3a4.29,4.29,0,0,1-4.28-4.29Zm11.17,69.68a4.3,4.3,0,0,1-4.29,4.29H47.45a4.3,4.3,0,0,1-4.29-4.29V39.75a4.29,4.29,0,0,1,4.29-4.29H89v5.3a9,9,0,0,0,9,9h6.89Z"/><path class="b" d="M91.31,71.16H54.44a2.35,2.35,0,1,1,0-4.7H91.31a2.35,2.35,0,0,1,0,4.7Z"/><path class="b" d="M81.7,81.54H54.44a2.35,2.35,0,1,1,0-4.7H81.7a2.35,2.35,0,0,1,0,4.7Z"/><path class="b" d="M91.31,91.91H54.44a2.35,2.35,0,0,1,0-4.7H91.31a2.35,2.35,0,0,1,0,4.7Z"/></svg>