<svg xmlns="http://www.w3.org/2000/svg" viewBox="0 0 128 128"><defs><style>.a{fill:#dce1eb;}.b{fill:#1c254c;}</style></defs><circle class="a" cx="64" cy="64" r="64"/><path class="b" d="M115.26,53.9H88a2.39,2.39,0,0,0-2.4,2.4v5.3H81.26a7.59,7.59,0,0,0-5.68-5V30.82a2.39,2.39,0,0,0-2.39-2.4H62.55V23.11a2.41,2.41,0,0,0-2.4-2.4H32.89a2.4,2.4,0,0,0-2.4,2.4V38.52a2.39,2.39,0,0,0,2.4,2.4H60.15a2.4,2.4,0,0,0,2.4-2.4v-5.3h8.24v24a7.51,7.51,0,0,0-3.9,4.42H62.55V56.3a2.4,2.4,0,0,0-2.4-2.4H32.89a2.39,2.39,0,0,0-2.4,2.4V71.71a2.39,2.39,0,0,0,2.4,2.39H60.15a2.4,2.4,0,0,0,2.4-2.39V66.4h4.34a7.53,7.53,0,0,0,3.9,4.43v24H62.55V89.48a2.41,2.41,0,0,0-2.4-2.4H32.89a2.4,2.4,0,0,0-2.4,2.4v15.41a2.39,2.39,0,0,0,2.4,2.4H60.15a2.4,2.4,0,0,0,2.4-2.4v-5.3H73.19a2.4,2.4,0,0,0,2.39-2.4V71.44a7.58,7.58,0,0,0,5.68-5H85.6v5.31A2.39,2.39,0,0,0,88,74.1h27.26a2.4,2.4,0,0,0,2.4-2.39V56.3A2.4,2.4,0,0,0,115.26,53.9ZM57.75,36.12H35.29V25.51H57.75Zm0,33.19H35.29V58.7H57.75Zm0,33.18H35.29V91.88H57.75ZM75.58,66.34v.06h-.1a2.72,2.72,0,0,1-1.41.39,2.68,2.68,0,0,1-1.4-.39,2.77,2.77,0,0,1,0-4.8,2.7,2.7,0,0,1,1.39-.38,2.77,2.77,0,0,1,1.4.38h.11v.07a2.77,2.77,0,0,1,0,4.67Zm37.28,3H90.4V58.7h22.46Z"/><path class="b" d="M75.48,66.4h.1v-.06A.21.21,0,0,1,75.48,66.4Zm0-4.8.11.07V61.6Z"/></svg>