<svg xmlns="http://www.w3.org/2000/svg" viewBox="0 0 128 128"><defs><style>.a{fill:#dce1eb;}.b{fill:#1c254c;}</style></defs><circle class="a" cx="64" cy="64" r="64"/><path class="b" d="M78.12,49.87h0a3.27,3.27,0,0,0-.35-.3A2.34,2.34,0,0,1,78.12,49.87Z"/><path class="b" d="M78.83,51.57V63.44a2.4,2.4,0,1,1-4.8,0V57.36l-23.3,23.3a2.4,2.4,0,1,1-3.39-3.39L70.63,54H64.56a2.4,2.4,0,0,1,0-4.8H76.43l.28,0a1.2,1.2,0,0,1,.2,0,1.55,1.55,0,0,1,.23.06l.22.08.21.1.2.12a3.27,3.27,0,0,1,.35.3,2.55,2.55,0,0,1,.26.3,2.12,2.12,0,0,1,.27.49c0,.14.09.28.13.42v0A2.31,2.31,0,0,1,78.83,51.57Z"/><path class="b" d="M65.34,101.51H36.24a9.76,9.76,0,0,1-9.75-9.75V62.66a9.76,9.76,0,0,1,9.75-9.75h19.1a2.4,2.4,0,0,1,0,4.8H36.24a5,5,0,0,0-5,4.95v29.1a5,5,0,0,0,5,4.95h29.1a5,5,0,0,0,5-4.95v-19a2.4,2.4,0,1,1,4.8,0v19A9.76,9.76,0,0,1,65.34,101.51Z"/><path class="b" d="M76.73,43.81H63.1a2.4,2.4,0,0,1-2.4-2.41V27.77a2.4,2.4,0,0,1,2.4-2.4H76.73a2.4,2.4,0,0,1,2.4,2.4V41.4A2.4,2.4,0,0,1,76.73,43.81ZM65.5,39h8.83V30.17H65.5Z"/><path class="b" d="M100.4,43.81H86.76a2.41,2.41,0,0,1-2.4-2.41V27.77a2.41,2.41,0,0,1,2.4-2.4H100.4a2.41,2.41,0,0,1,2.4,2.4V41.4A2.41,2.41,0,0,1,100.4,43.81ZM89.16,39H98V30.17H89.16Z"/><path class="b" d="M100.4,67.61H86.76a2.41,2.41,0,0,1-2.4-2.4V51.58a2.4,2.4,0,0,1,2.4-2.4H100.4a2.4,2.4,0,0,1,2.4,2.4V65.21A2.41,2.41,0,0,1,100.4,67.61Zm-11.24-4.8H98V54H89.16Z"/></svg>