<?xml version="1.0" encoding="UTF-8"?> <svg xmlns="http://www.w3.org/2000/svg" viewBox="0 0 50.63 36.44"><defs><style>.cls-1{fill:#ff6d02;}.cls-2{fill:#1b244d;}</style></defs><title>Fichier 18</title><g id="Calque_2" data-name="Calque 2"><g id="Calque_1-2" data-name="Calque 1"><polyline class="cls-1" points="37.6 13.61 34.26 13.61 34.26 22.71 37.6 22.71"></polyline><polyline class="cls-1" points="43.71 9.94 40.37 9.94 40.37 22.71 43.71 22.71"></polyline><path class="cls-2" d="M21.17,28.55h11v5.36H26.19v2.53H40.6V33.91H34.66V28.55h16V4.1H37.85V6.63H48.1V26H21.2"></path><path class="cls-2" d="M36.5.5h0a1.31,1.31,0,0,0-.08-.21h0a.67.67,0,0,0-.14-.15l0,0L36.1,0,36,0l-.08,0h-.14L.49,7.31A.59.59,0,0,0,0,7.82a.61.61,0,0,0,.31.62l10.11,5.33,1.77,9.84v.17a.14.14,0,0,0,0,.07.58.58,0,0,0,.06.17l0,0h0l0,0,.09.09v0h0a.24.24,0,0,0,.11.06l.05,0a.47.47,0,0,0,.17,0h0a.58.58,0,0,0,.43-.2L20,19.63l7.05,4.58a.56.56,0,0,0,.33.1.58.58,0,0,0,.19,0,.59.59,0,0,0,.38-.36l8.48-23a.66.66,0,0,0,.09-.31A.43.43,0,0,1,36.5.5Zm-7,4.09L14.87,15.31l-.06.06s0,0,0,0l0,0,0,0a.43.43,0,0,0-.05.12l0,0h0L13,21.06l-1.33-7.35ZM13.92,22.23l1.66-5.47,2.58,1.67.74.48-2.51,1.67Z"></path></g></g></svg> 